<?xml version="1.0" standalone="no"?>
<!DOCTYPE svg PUBLIC "-//W3C//DTD SVG 20010904//EN"
 "http://www.w3.org/TR/2001/REC-SVG-20010904/DTD/svg10.dtd">
<svg version="1.0" xmlns="http://www.w3.org/2000/svg"
 width="603.000000pt" height="603.000000pt" viewBox="0 0 603.000000 603.000000"
 preserveAspectRatio="xMidYMid meet">
<metadata>
Created by potrace 1.11, written by Peter Selinger 2001-2013
</metadata>
<g transform="translate(0.000000,603.000000) scale(0.100000,-0.100000)"
fill="#000000" stroke="none">
<path d="M1190 3995 l0 -125 365 0 365 0 0 -975 0 -975 155 0 155 0 0 975 0
975 365 0 365 0 0 125 0 125 -885 0 -885 0 0 -125z"/>
<path d="M3005 4093 c10 -16 173 -256 362 -535 l343 -508 -380 -562 -381 -563
158 -3 c86 -1 162 -1 168 1 5 3 145 205 310 451 268 399 301 445 313 429 7
-10 140 -213 294 -450 l282 -433 182 0 183 0 -385 562 c-211 309 -384 565
-384 568 0 4 156 236 346 516 191 280 353 519 361 532 l15 22 -166 0 -166 0
-282 -425 c-156 -233 -285 -424 -288 -424 -3 0 -126 191 -275 424 l-270 425
-179 0 -178 0 17 -27z"/>
</g>
</svg>
